<svg width="24" height="24" viewBox="0 0 24 24" fill="none" xmlns="http://www.w3.org/2000/svg">
<path d="M9.61124 23.764L0.314676 14.4675C0.297781 14.4506 0.297781 14.4229 0.314676 14.406L1.36186 13.3588C1.37875 13.3419 1.4064 13.3419 1.4233 13.3588L10.7199 22.6554C10.7368 22.6723 10.7368 22.6999 10.7199 22.7168L9.67268 23.764C9.65578 23.7809 9.62813 23.7809 9.61124 23.764Z" fill="#FFC166"/>
<path d="M20.1552 16.0987C19.7388 15.6823 19.0552 15.6904 18.6284 16.1172C18.5165 16.2291 18.4351 16.359 18.3811 16.4966L14.4439 15.0234L16.1545 8.7911C16.5122 8.88064 16.9101 8.7868 17.1949 8.50204C17.6217 8.07521 17.63 7.39173 17.2135 6.97519C16.7969 6.55865 16.1135 6.56694 15.6866 6.99377C15.4103 7.27008 15.3123 7.65345 15.3887 8.00287L8.97684 9.55629L7.50359 5.61913C7.64121 5.56476 7.77115 5.48367 7.88296 5.37185C8.30964 4.94517 8.31808 4.26154 7.90155 3.845C7.48501 3.42846 6.80153 3.43676 6.3747 3.86359C5.94802 4.29026 5.93957 4.9739 6.35611 5.39044C6.41739 5.45172 6.48574 5.50102 6.55685 5.54387L2.26198 12.5005L11.4994 21.7379L18.456 17.443C18.4989 17.5142 18.5482 17.5825 18.6095 17.6438C19.026 18.0603 19.7095 18.052 20.1363 17.6252C20.5631 17.1987 20.5716 16.515 20.1552 16.0987Z" fill="url(#paint0_linear_1073_1266)"/>
<defs>
<linearGradient id="paint0_linear_1073_1266" x1="17.1191" y1="6.88081" x2="6.8807" y2="17.1192" gradientUnits="userSpaceOnUse">
<stop stop-color="white"/>
<stop offset="1" stop-color="#FFD15C"/>
</linearGradient>
</defs>
</svg>
