<svg width="48" height="48" viewBox="0 0 48 48" fill="none" xmlns="http://www.w3.org/2000/svg">
<path d="M7.02892 18.4706C7.02892 20.6566 8.7072 22.4643 10.7631 22.4643C12.819 22.4643 14.4973 20.6566 14.4973 18.4706C14.8329 15.9482 12.819 14.4768 10.7631 14.4768C8.7072 14.4768 7.02892 16.2845 7.02892 18.4706ZM42.5665 9.17982C41.2239 9.17982 40.2169 10.2729 40.2169 11.3659C40.5526 12.4589 41.5595 13.5519 42.6085 13.5519C43.9511 13.5519 45 12.4589 45 11.3659C44.9161 10.2729 43.9091 9.17982 42.5665 9.17982ZM32.1612 10.9875C34.2171 10.9875 35.8953 9.17982 35.8953 6.99376C35.8953 4.8077 34.2171 3 32.1612 3C30.1053 3 28.427 4.8077 28.427 6.99376C28.0913 9.17982 29.8116 10.9875 32.1612 10.9875ZM16.5951 12.0806C18.2734 12.0806 19.9936 10.6092 19.9936 8.80146C19.9936 6.99376 18.651 5.52238 16.5951 5.52238C14.9168 5.52238 13.1966 6.99376 13.1966 8.80146C13.1966 10.6092 14.5812 12.0806 16.5951 12.0806ZM33.4618 21.4554C33.4618 23.2631 34.8044 24.7345 36.8603 24.7345C38.5386 24.7345 40.2589 23.2631 40.2589 21.4554C40.2589 19.6477 38.9162 18.1763 36.8603 18.1763C35.1401 18.1763 33.4618 19.6477 33.4618 21.4554ZM25.0285 21.1611C26.7068 21.1611 27.7557 19.6897 27.7557 18.2604C27.7557 16.789 26.4131 15.3596 25.0285 15.3596C23.3502 15.3596 22.3013 16.831 22.3013 18.2604C22.3013 19.6897 23.6439 21.1611 25.0285 21.1611ZM41.7693 27.383C41.3917 27.383 41.056 27.383 40.8463 27.5932C33.5457 33.0583 26.9585 29.1486 26.7487 28.9805C13.0707 19.942 3.92411 29.4849 3.92411 29.4849C3.71432 29.6951 3.54649 29.9474 3.54649 30.2837C3.58845 30.578 3.71432 30.8302 3.92411 31.0825C4.30172 31.671 5.01499 31.4608 5.56043 31.0825C5.72826 30.7041 13.2386 23.0949 25.3222 30.8723C25.49 31.0825 28.427 32.8061 32.6227 32.8061C35.3499 32.8061 38.8323 32.0073 42.3148 29.4849C42.7343 29.0225 42.8182 28.3078 42.4826 27.7193C42.3567 27.5091 42.063 27.383 41.7693 27.383ZM5.72826 9.17982C7.23871 9.17982 8.45546 7.87659 8.45546 6.27909C8.45546 5.52238 8.20372 4.76566 7.65828 4.21915C7.1548 3.67263 6.44153 3.37836 5.72826 3.33632C4.17585 3.37836 2.9591 4.68158 3.00105 6.27909C3.00105 7.0358 3.2528 7.79251 3.79824 8.33903C4.30172 8.8435 4.97303 9.17982 5.72826 9.17982ZM8.28763 35.4546H5.18282V44.7874H7.28067V41.6764H8.28763C10.1337 41.6764 11.7701 40.7095 11.7701 38.4814C11.812 36.1692 10.2177 35.4546 8.28763 35.4546ZM8.20372 39.9528H7.28067V37.2202H8.16176C9.16873 37.2202 9.75613 37.5565 9.75613 38.4814C9.75613 39.4063 9.25264 39.9528 8.20372 39.9528ZM18.0217 39.4904C17.8538 40.0369 17.728 40.6254 17.5182 41.214H17.4762C17.3084 40.6254 17.1825 40.0369 16.9727 39.4904L15.5882 35.4546H13.3225V44.7874H15.2105V41.5924C15.1686 40.4993 15.0847 39.4063 14.9588 38.3553H15.0008L15.714 40.5834L16.8888 43.9886H18.0636L19.2384 40.5834L19.9517 38.3553H19.9936C19.8678 39.4483 19.7419 40.4993 19.7419 41.5924V44.7874H21.6719V35.4546H19.3643L18.0217 39.4904ZM26.2033 43.0637C27.5459 41.6344 28.8466 39.8267 28.8466 38.2292C28.8466 36.4215 27.6718 35.2864 25.9515 35.2864C24.6928 35.2864 23.8956 35.7488 23.0145 36.7158L24.1474 37.9349C24.5669 37.4725 25.0285 37.01 25.6159 37.01C26.3291 37.01 26.7487 37.4725 26.7487 38.3133C26.7487 39.7006 25.2802 41.3822 23.0565 43.4841V44.7453H29.1403V42.8535H27.5039C27.1683 42.9376 26.6648 42.9797 26.2033 43.0637ZM31.9094 42.1809C31.364 42.1389 30.8605 42.4752 30.6088 42.9797C30.357 43.4841 30.4829 44.1147 30.8605 44.5351C31.2381 44.9555 31.8255 45.0816 32.329 44.8714C32.8325 44.6612 33.1681 44.1568 33.1681 43.5682C33.1681 43.1899 33.0423 42.8535 32.8325 42.6013C32.5807 42.3491 32.2451 42.1809 31.9094 42.1809ZM37.7834 38.6916C37.4897 38.6916 37.154 38.7337 36.8603 38.9018L36.9862 37.3043H40.133V35.4546H35.224L35.0142 40.0789L35.9373 40.7095C36.4408 40.3732 36.6925 40.2471 37.196 40.2471C37.9512 40.2471 38.4967 40.7516 38.4967 41.6764C38.4967 42.6013 37.9512 43.1478 37.1121 43.1478C36.3988 43.1478 35.8114 42.7695 35.3079 42.265L34.3429 43.6943C35.1401 44.5351 36.2729 45.0396 37.4058 44.9976C39.0841 44.9976 40.5945 43.7784 40.5945 41.6764C40.5106 39.6165 39.2938 38.6916 37.7834 38.6916Z" fill="url(#paint0_linear_1705_4216)"/>
<defs>
<linearGradient id="paint0_linear_1705_4216" x1="24" y1="3" x2="24" y2="45" gradientUnits="userSpaceOnUse">
<stop stop-color="#94EDFF"/>
<stop offset="1" stop-color="#07D1FA"/>
</linearGradient>
</defs>
</svg>
