<svg width="48" height="48" viewBox="0 0 48 48" fill="none" xmlns="http://www.w3.org/2000/svg">
<path d="M22.3047 17.4038H25.6946V37.5962H22.3047V17.4038ZM11.7963 37.5962C13.5943 37.5962 15.3188 36.887 16.5902 35.6248C17.8616 34.3625 18.5759 32.6505 18.5759 30.8654V10H15.1861V30.8654C15.1861 31.531 14.9873 32.1817 14.6148 32.7351C14.2423 33.2885 13.7129 33.7199 13.0935 33.9746C12.4741 34.2293 11.7925 34.296 11.1349 34.1661C10.4774 34.0362 9.87337 33.7157 9.39929 33.2451C8.92521 32.7744 8.60236 32.1748 8.47157 31.5219C8.34077 30.8691 8.4079 30.1925 8.66447 29.5775C8.92104 28.9626 9.35552 28.437 9.91297 28.0672C10.4704 27.6974 11.1258 27.5 11.7963 27.5V24.1346C9.99818 24.1346 8.27375 24.8437 7.00232 26.106C5.73089 27.3683 5.0166 29.0803 5.0166 30.8654C5.0166 32.6505 5.73089 34.3625 7.00232 35.6248C8.27375 36.887 9.99818 37.5962 11.7963 37.5962ZM36.203 37.5962C38.0011 37.5962 39.7256 36.887 40.997 35.6248C42.2684 34.3625 42.9827 32.6505 42.9827 30.8654C42.9827 29.0803 42.2684 27.3683 40.997 26.106C39.7256 24.8437 38.0011 24.1346 36.203 24.1346V27.5C36.8735 27.5 37.5289 27.6974 38.0863 28.0672C38.6438 28.437 39.0783 28.9626 39.3348 29.5775C39.5914 30.1925 39.6585 30.8691 39.5277 31.5219C39.3969 32.1748 39.0741 32.7744 38.6 33.2451C38.1259 33.7157 37.5219 34.0362 36.8644 34.1661C36.2068 34.296 35.5252 34.2293 34.9058 33.9746C34.2864 33.7199 33.757 33.2885 33.3845 32.7351C33.012 32.1817 32.8132 31.531 32.8132 30.8654V10H29.4234V30.8654C29.4234 31.7493 29.5987 32.6245 29.9395 33.4411C30.2802 34.2577 30.7796 34.9997 31.4091 35.6248C32.6805 36.887 34.405 37.5962 36.203 37.5962Z" fill="url(#paint0_linear_1705_4213)"/>
<defs>
<linearGradient id="paint0_linear_1705_4213" x1="24" y1="10" x2="24" y2="45" gradientUnits="userSpaceOnUse">
<stop stop-color="#ABD6FF"/>
<stop offset="1" stop-color="#0783FA"/>
</linearGradient>
</defs>
</svg>
