<svg width="48" height="48" viewBox="0 0 48 48" fill="none" xmlns="http://www.w3.org/2000/svg">
<path d="M46.95 27H37.05C36.45 27.15 36 26.85 35.85 26.25L34.35 21.45L29.7 43.5C29.7 43.5 29.55 44.7 28.95 44.7H27.3C26.85 44.85 26.25 44.55 26.1 43.95L20.25 15.3L15.9 36C15.75 36.45 15.15 36.9 14.7 36.75H13.2C12.6 36.9 12.15 36.6 12 36L9 26.85H1.05C0.45 27 0 26.55 0 26.1V24C0 23.4 0.45 22.95 1.05 22.95H10.95C11.55 22.95 12 22.95 12.15 23.55L13.65 28.35L18 5.84999C18 5.84999 18.15 5.09999 18.9 5.09999H21C21.45 4.94999 22.05 5.24999 22.2 5.84999L27.9 34.2L32.1 13.8C32.25 13.35 32.7 12.9 33.15 13.05H34.8C35.4 12.9 35.85 13.2 36 13.8L38.85 23.1H46.8C47.4 23.1 47.85 23.55 47.85 24.15V26.1C48 26.55 47.55 27 46.95 27Z" fill="url(#paint0_linear_2404_5460)"/>
<defs>
<linearGradient id="paint0_linear_2404_5460" x1="23.9395" y1="5.06177" x2="23.9395" y2="44.7382" gradientUnits="userSpaceOnUse">
<stop stop-color="#94EDFF"/>
<stop offset="1" stop-color="#07D1FA"/>
</linearGradient>
</defs>
</svg>
