<svg width="48" height="48" viewBox="0 0 48 48" fill="none" xmlns="http://www.w3.org/2000/svg">
<path d="M24.375 3.51562C27.7921 3.51562 30.5687 6.25983 30.6239 9.66605L30.6248 9.76945V28.4837C32.8481 30.3271 34.1719 33.071 34.1719 36.0335C34.1719 40.0106 31.805 43.4347 28.4039 44.9721C27.1645 45.5606 25.7797 45.8906 24.3211 45.8906C21.643 45.8906 19.2135 44.778 17.477 42.9945C15.6867 41.2183 14.5781 38.7555 14.5781 36.0335C14.5781 33.0677 15.9053 30.3238 18.1252 28.4835L18.1252 9.76945C18.1252 6.31556 20.9234 3.51562 24.375 3.51562ZM24.375 6.31908C22.4897 6.31908 20.9578 7.83314 20.9273 9.71236L20.9269 9.76945V28.6815C21.1147 29.2463 20.9259 29.8884 20.4243 30.2552L20.3953 30.2759C18.5199 31.5768 17.3798 33.7078 17.3798 36.0335C17.3798 39.8993 20.5116 43.0333 24.375 43.0333C28.2384 43.0333 31.3703 39.8993 31.3703 36.0335C31.3703 33.8026 30.3218 31.7492 28.5744 30.4347L28.5212 30.3951C28.273 30.2125 28.0921 29.9529 28.0069 29.6567C27.8917 29.455 27.8286 29.2276 27.8235 28.9953L27.8231 28.9622V9.76945C27.8231 7.86384 26.2793 6.31908 24.375 6.31908ZM24.2672 17.425C24.474 17.425 24.6732 17.4573 24.8601 17.5172C25.6488 17.75 26.2283 18.4791 26.2283 19.3365L26.2284 30.5951C28.4771 31.4005 30.086 33.5515 30.086 36.0786C30.086 36.4039 30.0593 36.723 30.0081 37.0337C29.6918 39.8714 27.2552 42.0972 24.3211 42.0972C22.1076 42.0972 20.1771 40.8303 19.2266 38.9895C18.7318 38.1331 18.4485 37.139 18.4485 36.0786C18.4485 33.5435 20.0677 31.3867 22.3276 30.5874L22.3277 19.3645C22.3277 18.2933 23.196 17.425 24.2672 17.425Z" fill="url(#paint0_linear_1705_2912)"/>
<defs>
<linearGradient id="paint0_linear_1705_2912" x1="24.375" y1="3.51562" x2="24.375" y2="45.8906" gradientUnits="userSpaceOnUse">
<stop stop-color="#ABD6FF"/>
<stop offset="1" stop-color="#0783FA"/>
</linearGradient>
</defs>
</svg>
