<svg width="48" height="48" viewBox="0 0 48 48" fill="none" xmlns="http://www.w3.org/2000/svg">
<path d="M29.8611 26.3162V9.05061C29.8611 7.44589 29.2435 5.90689 28.1441 4.77218C27.0448 3.63747 25.5537 3 23.999 3C22.4443 3 20.9533 3.63747 19.8539 4.77218C18.7546 5.90689 18.137 7.44589 18.137 9.05061V26.3162C16.4247 27.595 15.149 29.4008 14.493 31.4745C13.837 33.5481 13.8343 35.783 14.4855 37.8584C15.1366 39.9337 16.408 41.7427 18.1172 43.0258C19.8264 44.3089 21.8856 45 23.999 45C26.1125 45 28.1716 44.3089 29.8808 43.0258C31.59 41.7427 32.8615 39.9337 33.5126 37.8584C34.1637 35.783 34.1611 33.5481 33.5051 31.4745C32.849 29.4008 31.5733 27.595 29.8611 26.3162ZM23.999 42.151C22.4701 42.1488 20.9811 41.6472 19.7453 40.7181C18.5095 39.7889 17.5903 38.4798 17.1195 36.9784C16.6487 35.4771 16.6503 33.8604 17.1242 32.36C17.5981 30.8596 18.5199 29.5526 19.7576 28.6261L20.8956 27.7719V9.05061C20.8956 8.20105 21.2225 7.38629 21.8046 6.78556C22.3866 6.18483 23.1759 5.84734 23.999 5.84734C24.8221 5.84734 25.6115 6.18483 26.1935 6.78556C26.7755 7.38629 27.1025 8.20105 27.1025 9.05061V27.7683L28.2404 28.6261C29.4781 29.5526 30.3999 30.8596 30.8738 32.36C31.3477 33.8604 31.3494 35.4771 30.8785 36.9784C30.4077 38.4798 29.4886 39.7889 28.2528 40.7181C27.017 41.6472 25.5279 42.1488 23.999 42.151Z" fill="url(#paint0_linear_1705_2962)"/>
<path d="M25.4221 30.1704V16.7255H22.5747V30.1704C21.5259 30.5021 20.6326 31.1889 20.0557 32.1074C19.4788 33.0258 19.2561 34.1154 19.4278 35.1801C19.5995 36.2448 20.1542 37.2146 20.9921 37.9149C21.8301 38.6152 22.8961 39 23.9984 39C25.1007 39 26.1668 38.6152 27.0047 37.9149C27.8426 37.2146 28.3974 36.2448 28.5691 35.1801C28.7407 34.1154 28.5181 33.0258 27.9411 32.1074C27.3642 31.1889 26.471 30.5021 25.4221 30.1704ZM43.1404 18.7755C39.9833 15.1489 39.6879 13.8333 39.6594 13.6558C39.6345 13.8368 39.3391 15.1489 36.1819 18.7755C32.4909 23.0147 34.6265 28.3153 39.6345 28.559H39.6879C44.6923 28.3119 46.8278 23.0147 43.1404 18.7755ZM40.2929 26.6865C40.2621 26.8228 40.1846 26.9447 40.0733 27.032C39.962 27.1194 39.8235 27.1669 39.6807 27.1668C39.6334 27.1718 39.5857 27.1718 39.5384 27.1668C38.4424 26.9461 37.4685 26.3372 36.8037 25.4571C36.1389 24.577 35.83 23.4878 35.9364 22.3986C35.9438 22.3189 35.9673 22.2413 36.0054 22.1705C36.0435 22.0996 36.0956 22.0367 36.1585 21.9855C36.2215 21.9343 36.2942 21.8957 36.3724 21.8719C36.4506 21.8481 36.5328 21.8397 36.6144 21.847C36.696 21.8543 36.7753 21.8772 36.8477 21.9145C36.9202 21.9518 36.9845 22.0027 37.0369 22.0642C37.0893 22.1258 37.1288 22.1969 37.1531 22.2733C37.1774 22.3498 37.186 22.4302 37.1785 22.51C37.1785 22.6318 36.9757 25.35 39.816 25.9904C39.9708 26.0255 40.1061 26.1171 40.1941 26.2465C40.2821 26.3759 40.3162 26.5333 40.2894 26.6865H40.2929ZM13.2742 8.06973C11.3771 5.89447 11.2027 5.10441 11.1849 5C11.1849 5.10789 10.9927 5.89447 9.09915 8.06973C6.88526 10.6139 8.16305 13.795 11.1849 13.9412H11.2169C14.2032 13.7915 15.4846 10.6139 13.2742 8.06973ZM6.5578 19.6178C6.54001 19.7361 6.34424 20.6132 4.24069 23.0286C1.77765 25.8547 3.20137 29.3908 6.5578 29.5509H6.59339C9.93203 29.3873 11.3558 25.8547 8.89627 23.0286C6.77136 20.6132 6.5756 19.7361 6.5578 19.6178Z" fill="url(#paint1_linear_1705_2962)"/>
<defs>
<linearGradient id="paint0_linear_1705_2962" x1="23.999" y1="3" x2="23.999" y2="45" gradientUnits="userSpaceOnUse">
<stop stop-color="#94EDFF"/>
<stop offset="1" stop-color="#07D1FA"/>
</linearGradient>
<linearGradient id="paint1_linear_1705_2962" x1="23.999" y1="5" x2="23.999" y2="39" gradientUnits="userSpaceOnUse">
<stop stop-color="#94EDFF"/>
<stop offset="1" stop-color="#07D1FA"/>
</linearGradient>
</defs>
</svg>
